<?xml version="1.0" encoding="UTF-8" standalone="no"?>
<svg
   width="512"
   height="512"
   viewBox="0 0 512 512"
   fill="none"
   version="1.1"
   id="svg3"
   sodipodi:docname="logo.svg"
   inkscape:version="1.4.2 (f4327f4, 2025-05-13)"
   xmlns:inkscape="http://www.inkscape.org/namespaces/inkscape"
   xmlns:sodipodi="http://sodipodi.sourceforge.net/DTD/sodipodi-0.dtd"
   xmlns="http://www.w3.org/2000/svg"
   xmlns:svg="http://www.w3.org/2000/svg">
  <sodipodi:namedview
     id="namedview3"
     pagecolor="#ffffff"
     bordercolor="#000000"
     borderopacity="0.25"
     inkscape:showpageshadow="2"
     inkscape:pageopacity="0.0"
     inkscape:pagecheckerboard="0"
     inkscape:deskcolor="#d1d1d1"
     inkscape:zoom="2.2792969"
     inkscape:cx="255.78063"
     inkscape:cy="256"
     inkscape:window-width="2560"
     inkscape:window-height="1369"
     inkscape:window-x="-8"
     inkscape:window-y="235"
     inkscape:window-maximized="1"
     inkscape:current-layer="svg3" />
  <defs
     id="defs3">
    <clipPath
       id="clip0_2_2">
      <rect
         width="512"
         height="512"
         fill="white"
         id="rect3" />
    </clipPath>
    <clipPath
       clipPathUnits="userSpaceOnUse"
       id="clipPath54">
      <path
         d="M 0,113.386 H 113.386 V 0 H 0 Z"
         transform="translate(-43.919399,-69.375902)"
         id="path54" />
    </clipPath>
    <clipPath
       clipPathUnits="userSpaceOnUse"
       id="clipPath56">
      <path
         d="M 0,113.386 H 113.386 V 0 H 0 Z"
         transform="translate(-80.349202,-73.533902)"
         id="path56" />
    </clipPath>
    <clipPath
       clipPathUnits="userSpaceOnUse"
       id="clipPath58">
      <path
         d="M 0,113.386 H 113.386 V 0 H 0 Z"
         transform="translate(-75.123299,-82.077102)"
         id="path58" />
    </clipPath>
    <clipPath
       clipPathUnits="userSpaceOnUse"
       id="clipPath60">
      <path
         d="M 0,113.386 H 113.386 V 0 H 0 Z"
         transform="translate(-75.123299,-50.494601)"
         id="path60" />
    </clipPath>
    <clipPath
       clipPathUnits="userSpaceOnUse"
       id="clipPath62">
      <path
         d="M 0,113.386 H 113.386 V 0 H 0 Z"
         transform="translate(-47.009504,-59.984501)"
         id="path62" />
    </clipPath>
    <clipPath
       clipPathUnits="userSpaceOnUse"
       id="clipPath64">
      <path
         d="M 0,113.386 H 113.386 V 0 H 0 Z"
         transform="translate(-40.816401,-83.183602)"
         id="path64" />
    </clipPath>
  </defs>
  <g
     id="g6"
     transform="matrix(6.7272977,0,0,8.2665611,-1402.0709,-242.18958)">
    <path
       id="path53"
       d="m 0,0 h -9.163 c -0.367,1.242 -1.503,2.154 -2.864,2.154 -1.657,0 -2.999,-1.343 -2.999,-2.999 0,-1.656 1.342,-2.999 2.999,-2.999 1.314,0 2.418,0.85 2.824,2.026 H 0 Z"
       style="fill:#000000;fill-opacity:1;fill-rule:nonzero;stroke:none"
       transform="matrix(1.3333333,0,0,-1.3333333,229.74053,58.680133)"
       clip-path="url(#clipPath54)" />
    <path
       id="path55"
       d="m 0,0 c -1.175,0 -2.128,0.953 -2.128,2.128 0,1.176 0.953,2.128 2.128,2.128 1.175,0 2.128,-0.952 2.128,-2.128 C 2.128,0.953 1.175,0 0,0 m 0,5.597 c -1.504,0 -2.772,-0.963 -3.253,-2.301 l -30.087,0.059 1.627,-1.999 h 28.338 c 0.352,-1.543 1.726,-2.697 3.375,-2.697 1.916,0 3.469,1.553 3.469,3.469 0,1.916 -1.553,3.469 -3.469,3.469"
       style="fill:#999999;fill-opacity:1;fill-rule:nonzero;stroke:none"
       transform="matrix(1.3333333,0,0,-1.3333333,278.3136,53.136133)"
       clip-path="url(#clipPath56)" />
    <path
       id="path57"
       d="m 0,0 c -1.175,0 -2.128,0.953 -2.128,2.128 0,1.176 0.953,2.128 2.128,2.128 1.175,0 2.128,-0.952 2.128,-2.128 C 2.128,0.953 1.175,0 0,0 m 0,5.597 c -1.616,0 -2.962,-1.11 -3.347,-2.605 H -8.543 V 1.113 H -3.3 c 0.436,-1.417 1.74,-2.454 3.3,-2.454 1.916,0 3.469,1.553 3.469,3.469 0,1.916 -1.553,3.469 -3.469,3.469"
       style="fill:#999999;fill-opacity:1;fill-rule:nonzero;stroke:none"
       transform="matrix(1.3333333,0,0,-1.3333333,271.34573,41.7452)"
       clip-path="url(#clipPath58)" />
    <path
       id="path59"
       d="m 0,0 c -1.175,0 -2.128,0.953 -2.128,2.128 0,1.176 0.953,2.128 2.128,2.128 1.175,0 2.128,-0.952 2.128,-2.128 C 2.128,0.953 1.175,0 0,0 m 0,5.597 c -1.61,0 -2.952,-1.103 -3.343,-2.59 h -4.736 c -0.394,1.491 -1.746,2.605 -3.357,2.605 h -19.556 c -1.916,0 -3.484,-1.568 -3.484,-3.484 0,-1.916 1.568,-3.484 3.484,-3.484 h 19.556 c 1.633,0 3.004,1.143 3.376,2.666 h 4.699 c 0.369,-1.519 1.728,-2.651 3.361,-2.651 1.916,0 3.469,1.553 3.469,3.469 0,1.916 -1.553,3.469 -3.469,3.469"
       style="fill:#999999;fill-opacity:1;fill-rule:nonzero;stroke:none"
       transform="matrix(1.3333333,0,0,-1.3333333,271.34573,83.8552)"
       clip-path="url(#clipPath60)" />
    <path
       id="path61"
       d="m 0,0 h 24.903 l 2.726,-2 1.151,1.455 -3.332,2.484 H 1.091 L 0.303,0"
       style="fill:#999999;fill-opacity:1;fill-rule:nonzero;stroke:none"
       transform="matrix(1.3333333,0,0,-1.3333333,233.86067,71.202)"
       clip-path="url(#clipPath62)" />
    <path
       id="path63"
       d="m 0,0 c 0.418,-1.29 1.619,-2.235 3.042,-2.235 h 20.101 c 1.767,0 3.212,1.445 3.212,3.211 0,1.766 -1.445,3.211 -3.212,3.211 H 3.042 C 1.571,4.187 0.336,3.18 -0.04,1.824 h -4.552 l -4.787,-4.907 5.09,-4.969 c 0,0 3.4,0.068 5.332,0.052 v -2.172 l 4.605,-4.635 -4.605,-4.575 v -1.939 H -4.41 l -4.969,-5.271 4.969,-4.908 h 4.387 c 0.415,-1.461 1.749,-2.545 3.338,-2.545 h 14.784 c 1.916,0 3.484,1.568 3.484,3.484 0,1.916 -1.568,3.484 -3.484,3.484 H 3.315 c -1.562,0 -2.877,-1.048 -3.315,-2.471 l -3.925,0.047 -2.727,3.091 2.969,3.211 h 4.726 0.485 4.968 l 4.633,4.908 h 10.09 c 1.767,0 3.212,1.445 3.212,3.211 v 0.545 c 0,1.766 -1.445,3.212 -3.212,3.212 H 11.671 L 6.829,-6.295 H 2.982 1.043 -3.532 l -3.241,3.181 2.848,3 z"
       style="fill:#000000;fill-opacity:1;fill-rule:nonzero;stroke:none"
       transform="matrix(1.3333333,0,0,-1.3333333,225.6032,40.269867)"
       clip-path="url(#clipPath64)" />
  </g>
</svg>
